<?xml version="1.0" standalone="no"?>
<!DOCTYPE svg PUBLIC "-//W3C//DTD SVG 20010904//EN"
 "http://www.w3.org/TR/2001/REC-SVG-20010904/DTD/svg10.dtd">
<svg version="1.0" xmlns="http://www.w3.org/2000/svg"
 width="512.000000pt" height="512.000000pt" viewBox="0 0 512.000000 512.000000"
 preserveAspectRatio="xMidYMid meet">

<g transform="translate(0.000000,512.000000) scale(0.100000,-0.100000)"
fill="#000000" stroke="none">
<path d="M686 1516 c-59 -22 -108 -67 -138 -126 l-28 -54 0 -568 c0 -488 2
-574 15 -605 41 -98 126 -156 230 -156 101 -1 180 47 229 138 21 40 21 46 21
620 0 554 -1 582 -19 619 -25 50 -73 97 -122 121 -50 24 -138 29 -188 11z"/>
<path d="M2171 1520 c-284 -60 -501 -250 -591 -518 -70 -210 -45 -432 71 -630
46 -77 189 -218 269 -265 128 -74 330 -119 435 -97 206 43 269 299 110 439
-38 33 -118 61 -174 61 -20 0 -54 9 -76 19 -155 70 -206 250 -111 388 42 62
113 101 203 112 113 14 187 63 225 150 24 52 26 142 5 192 -20 50 -73 106
-121 131 -47 24 -171 33 -245 18z"/>
<path d="M3686 1513 c-241 -51 -437 -209 -540 -435 -140 -306 -54 -682 207
-898 76 -63 218 -134 312 -156 92 -22 258 -22 350 0 94 22 236 93 312 156 261
216 347 592 207 898 -150 328 -504 509 -848 435z m223 -499 c38 -11 67 -29
101 -63 132 -132 92 -342 -80 -420 -112 -51 -249 4 -313 124 -16 30 -22 58
-22 115 0 64 4 82 27 122 35 59 90 105 148 123 59 18 76 18 139 -1z"/>
</g>
</svg>
